<svg width="800" height="520" viewBox="0 0 800 520" fill="none" xmlns="http://www.w3.org/2000/svg">
  <rect width="800" height="520" rx="36" fill="#06111F"/>
  <rect x="38" y="44" width="724" height="432" rx="28" fill="#0F172A" stroke="#22D3EE" stroke-opacity="0.18"/>
  <rect x="70" y="84" width="250" height="150" rx="24" fill="#132235"/>
  <rect x="344" y="84" width="174" height="150" rx="24" fill="#10243B"/>
  <rect x="542" y="84" width="188" height="150" rx="24" fill="#10243B"/>
  <rect x="70" y="262" width="660" height="176" rx="24" fill="#132235"/>
  <path d="M102 188C140 132 180 218 227 164C255 132 276 144 288 117" stroke="#22D3EE" stroke-width="8" stroke-linecap="round"/>
  <path d="M386 180L418 140L450 180L484 122" stroke="#A855F7" stroke-width="8" stroke-linecap="round"/>
  <path d="M586 195C612 145 635 145 663 195" stroke="#34D399" stroke-width="8" stroke-linecap="round"/>
</svg>
