<svg width="128" height="128" viewBox="0 0 128 128" fill="none" xmlns="http://www.w3.org/2000/svg">
  <circle cx="64" cy="64" r="44" fill="#0F172A" stroke="#E2E8F0" stroke-width="4"/>
  <path d="M64 34C47 34 34 48 34 66C34 80 43 92 56 96V83C51 84 47 81 45 76C44 73 42 70 40 68C38 67 39 66 40 66C44 66 47 70 48 72C52 79 58 77 61 76C61 72 63 69 64 68C50 66 36 61 36 41C36 35 38 30 42 26C41 24 39 18 43 10C43 10 48 8 64 19C79 8 85 10 85 10C89 18 87 24 86 26C90 30 92 35 92 41C92 61 78 66 64 68C66 70 68 75 68 82V96C81 92 90 80 90 66C90 48 77 34 64 34Z" fill="#F8FAFC"/>
</svg>
